<?xml version="1.0" standalone="no"?>
<!DOCTYPE svg PUBLIC "-//W3C//DTD SVG 20010904//EN"
 "http://www.w3.org/TR/2001/REC-SVG-20010904/DTD/svg10.dtd">
<svg version="1.0" xmlns="http://www.w3.org/2000/svg"
 width="600.000000pt" height="600.000000pt" viewBox="0 0 600.000000 600.000000"
 preserveAspectRatio="xMidYMid meet">
<metadata>
Created by potrace 1.14, written by Peter Selinger 2001-2017
</metadata>
<g transform="translate(0.000000,600.000000) scale(0.100000,-0.100000)"
fill="#000000" stroke="none">
<path d="M0 3000 l0 -3000 3000 0 3000 0 0 3000 0 3000 -3000 0 -3000 0 0
-3000z m827 382 c46 -25 61 -88 29 -120 -14 -14 -19 -14 -51 1 -78 37 -172 10
-201 -58 -8 -19 -14 -55 -14 -80 0 -125 91 -190 211 -150 43 15 53 15 60 4 21
-32 21 -61 2 -87 -58 -78 -255 -67 -348 19 -58 54 -80 112 -80 214 0 117 48
205 136 250 60 31 203 35 256 7z m253 5 c23 -12 25 -19 30 -107 l5 -95 85 0
85 0 3 101 3 102 35 7 c47 8 100 -10 108 -38 3 -12 6 -129 6 -259 l0 -238 -26
-6 c-35 -9 -105 2 -115 18 -5 7 -9 52 -9 101 l0 87 -90 0 -90 0 0 -99 c0 -110
-1 -111 -71 -111 -26 0 -46 7 -59 20 -19 19 -20 33 -20 269 l0 250 23 4 c43 8
72 7 97 -6z m782 -8 c9 -5 22 -18 28 -29 13 -25 57 -167 106 -342 35 -125 36
-132 18 -145 -25 -18 -108 -17 -124 2 -6 8 -18 34 -25 57 l-12 43 -80 3 -80 3
-16 -61 -17 -60 -54 0 c-109 0 -109 27 -8 325 l68 200 40 12 c41 13 125 9 156
-8z m624 -2 c47 -24 94 -76 118 -127 27 -60 29 -185 3 -252 -48 -123 -205
-187 -353 -143 -109 32 -176 130 -177 257 0 40 5 91 11 114 16 55 76 122 136
151 45 21 62 24 141 20 58 -2 101 -9 121 -20z m544 7 c59 -24 79 -76 44 -115
-14 -15 -20 -15 -61 -3 -88 27 -160 12 -152 -31 3 -14 26 -27 76 -46 144 -53
178 -87 178 -179 0 -71 -21 -105 -86 -137 -161 -81 -398 9 -311 118 l19 22 46
-22 c51 -25 139 -30 162 -11 18 15 19 44 3 57 -7 5 -48 22 -90 37 -117 42
-158 84 -158 161 0 73 40 126 115 153 47 17 169 14 215 -4z m461 6 c84 -23
149 -101 149 -177 0 -113 -96 -193 -232 -193 l-48 0 0 -80 0 -79 -35 -7 c-37
-7 -82 1 -102 18 -10 8 -13 70 -13 248 0 261 -1 255 63 270 47 12 177 11 218
0z m524 -1 c87 -24 135 -86 135 -174 0 -55 -18 -93 -60 -129 l-31 -25 56 -75
c48 -64 55 -78 45 -95 -21 -41 -86 -54 -127 -26 -11 8 -42 48 -68 90 -37 60
-51 75 -71 75 -24 0 -24 -2 -24 -84 l0 -84 -31 -7 c-43 -10 -97 3 -109 25 -15
29 -13 475 3 488 36 30 204 42 282 21z m1488 -3 c72 -26 97 -74 63 -121 -13
-17 -15 -18 -55 -2 -23 10 -65 17 -94 17 -104 0 -160 -56 -160 -159 0 -63 21
-112 58 -137 29 -19 94 -29 129 -20 23 6 26 11 26 51 l0 45 -49 0 c-53 0 -61
8 -61 59 0 44 16 51 122 51 128 0 131 -4 126 -155 -3 -100 -5 -107 -28 -125
-58 -44 -190 -56 -291 -27 -237 69 -246 422 -13 511 21 8 48 17 59 19 42 10
132 6 168 -7z m-1113 -6 c13 -8 15 -51 18 -263 l3 -255 -36 -6 c-48 -9 -93 1
-105 24 -6 11 -10 121 -10 264 l0 246 58 0 c31 0 64 -5 72 -10z m295 -2 c25
-11 83 -115 156 -278 l24 -55 3 173 2 173 57 -3 c82 -4 83 -5 83 -285 l0 -231
-31 -11 c-41 -14 -78 -14 -118 0 -29 10 -41 29 -112 173 l-79 161 0 -167 0
-166 -39 -7 c-26 -4 -50 -2 -68 7 l-28 13 -3 245 c-2 221 -1 246 15 258 21 15
104 16 138 0z m-1395 -933 c0 -122 -2 -145 -15 -145 -13 0 -15 23 -15 145 0
122 2 145 15 145 13 0 15 -23 15 -145z m240 136 c0 -5 -9 -12 -19 -16 -19 -6
-34 -41 -25 -57 3 -4 12 -8 20 -8 21 0 17 -17 -6 -23 -18 -5 -20 -14 -20 -91
0 -70 -3 -86 -15 -86 -12 0 -15 17 -15 89 0 62 -4 91 -12 95 -10 5 -10 7 0 12
6 3 12 16 12 28 0 33 28 66 56 66 13 0 24 -4 24 -9z m-774 -12 c10 -17 -13
-36 -27 -22 -12 12 -4 33 11 33 5 0 12 -5 16 -11z m624 -9 c0 -11 -7 -20 -15
-20 -8 0 -15 9 -15 20 0 11 7 20 15 20 8 0 15 -9 15 -20z m-907 -82 c9 -11 17
-35 17 -54 l0 -34 -59 0 c-57 0 -58 0 -53 -26 6 -33 42 -50 72 -34 27 15 48
-1 26 -19 -25 -21 -86 -16 -110 8 -17 17 -21 33 -21 82 1 55 4 64 29 86 33 28
70 25 99 -9z m177 12 c17 -17 20 -33 20 -105 0 -69 -3 -85 -15 -85 -12 0 -15
15 -15 71 0 100 -20 130 -62 92 -14 -13 -18 -31 -18 -90 0 -58 -3 -73 -15 -73
-12 0 -15 18 -15 101 0 100 0 101 23 96 12 -4 29 -2 37 3 23 15 38 12 60 -10z
m263 8 c36 -19 46 -40 47 -95 0 -40 -5 -58 -23 -79 -29 -34 -83 -36 -108 -5
-40 49 -28 154 21 178 31 16 36 16 63 1z m740 3 c24 -9 47 -54 47 -92 0 -16
-8 -19 -60 -19 -65 0 -72 -8 -44 -49 16 -23 34 -24 77 -6 12 5 17 3 17 -8 0
-22 -54 -38 -89 -26 -34 12 -51 45 -51 99 0 49 16 85 44 98 27 14 30 14 59 3z
m-893 -105 c0 -57 -3 -118 -6 -135 -7 -36 -33 -54 -55 -40 -12 8 -11 11 4 20
15 9 17 27 17 134 0 118 1 125 20 125 19 0 20 -7 20 -104z m279 36 c8 -34 18
-62 21 -62 4 0 13 27 20 61 12 54 31 82 46 66 7 -7 -64 -248 -78 -264 -12 -15
-48 -17 -48 -3 0 5 8 14 19 19 30 16 30 41 0 141 -34 112 -34 112 -12 108 13
-2 22 -22 32 -66z m341 -32 c0 -82 -3 -100 -15 -100 -12 0 -15 18 -15 100 0
82 3 100 15 100 12 0 15 -18 15 -100z"/>
<path d="M1746 3180 c-14 -44 -26 -85 -26 -91 0 -9 93 -13 102 -4 5 6 -37 163
-46 172 -3 3 -16 -32 -30 -77z"/>
<path d="M2285 3258 c-36 -28 -55 -76 -54 -135 0 -69 19 -114 58 -140 58 -39
117 -26 158 36 29 42 32 144 7 197 -30 63 -116 84 -169 42z"/>
<path d="M3360 3210 l0 -70 38 0 c55 0 82 23 82 70 0 47 -27 70 -82 70 l-38 0
0 -70z"/>
<path d="M3870 3209 l0 -72 45 6 c55 6 85 30 85 69 0 43 -32 68 -85 68 l-45 0
0 -71z"/>
<path d="M2393 2468 c-6 -7 -13 -21 -16 -30 -5 -15 0 -18 38 -18 25 0 45 2 45
4 0 3 -4 16 -10 30 -10 28 -41 35 -57 14z"/>
<path d="M2856 2464 c-23 -23 -21 -106 2 -127 25 -23 38 -21 56 5 31 43 10
138 -29 138 -7 0 -21 -7 -29 -16z"/>
<path d="M3596 2458 c-24 -33 -20 -38 28 -38 41 0 44 2 38 23 -10 42 -43 49
-66 15z"/>
</g>
</svg>
